STARTFONT 2.1
FONT -FontForge-Hanalei-Book-R-Normal--12-120-72-72-P-60-ISO10646-1
SIZE 12 72 72
FONTBOUNDINGBOX 16 15 -1 -3
COMMENT "Generated by fontforge, http://fontforge.sourceforge.net"
COMMENT "Copyright (c) 2012 by Brian J. Bonislawsky DBA Astigmatic (AOETI) (astigma@astigmatic.com), with ReservedFont Name "Hanalei""
STARTPROPERTIES 39
FOUNDRY "FontForge"
FAMILY_NAME "Hanalei"
WEIGHT_NAME "Book"
SLANT "R"
SETWIDTH_NAME "Normal"
ADD_STYLE_NAME ""
PIXEL_SIZE 12
POINT_SIZE 120
RESOLUTION_X 72
RESOLUTION_Y 72
SPACING "P"
AVERAGE_WIDTH 60
CHARSET_REGISTRY "ISO10646"
CHARSET_ENCODING "1"
FONTNAME_REGISTRY ""
CHARSET_COLLECTIONS "ISO8859-2 ISO8859-9 ISO8859-4 ISO10646-1"
FONT_NAME "Hanalei-Regular"
FACE_NAME "Hanalei"
COPYRIGHT "Copyright (c) 2012 by Brian J. Bonislawsky DBA Astigmatic (AOETI) (astigma@astigmatic.com), with ReservedFont Name "Hanalei""
FONT_VERSION "1.000"
FONT_ASCENT 10
FONT_DESCENT 2
UNDERLINE_POSITION -2
UNDERLINE_THICKNESS 1
X_HEIGHT 7
CAP_HEIGHT 7
RAW_ASCENT 799
RAW_DESCENT 200
NORM_SPACE 2
RELATIVE_WEIGHT 40
RELATIVE_SETWIDTH 50
SUPERSCRIPT_X 0
SUPERSCRIPT_Y 5
SUPERSCRIPT_SIZE 7
SUBSCRIPT_X 0
SUBSCRIPT_Y 1
SUBSCRIPT_SIZE 7
AVG_LOWERCASE_WIDTH 64
AVG_UPPERCASE_WIDTH 63
ENDPROPERTIES
CHARS 366
STARTCHAR space
ENCODING 32
SWIDTH 200 0
DWIDTH 2 0
BBX 1 1 0 0
BITMAP
00
ENDCHAR
STARTCHAR exclam
ENCODING 33
SWIDTH 257 0
DWIDTH 3 0
BBX 3 8 0 0
BITMAP
E0
A0
E0
A0
A0
40
40
E0
ENDCHAR
STARTCHAR quotedbl
ENCODING 34
SWIDTH 476 0
DWIDTH 6 0
BBX 5 5 0 4
BITMAP
F8
B8
F8
B8
F8
ENDCHAR
STARTCHAR numbersign
ENCODING 35
SWIDTH 1076 0
DWIDTH 13 0
BBX 13 8 0 0
BITMAP
EFF8
BBE8
EF68
AB50
EFA8
B6F0
B2D0
EEF0
ENDCHAR
STARTCHAR dollar
ENCODING 36
SWIDTH 453 0
DWIDTH 5 0
BBX 5 11 0 -2
BITMAP
70
58
68
90
F0
48
68
98
B0
50
20
ENDCHAR
STARTCHAR percent
ENCODING 37
SWIDTH 889 0
DWIDTH 11 0
BBX 10 8 0 0
BITMAP
F600
F600
F600
ABC0
5F40
0FC0
0EC0
09C0
ENDCHAR
STARTCHAR ampersand
ENCODING 38
SWIDTH 627 0
DWIDTH 8 0
BBX 8 9 0 0
BITMAP
28
5E
5A
34
28
5E
B5
EE
FC
ENDCHAR
STARTCHAR quotesingle
ENCODING 39
SWIDTH 246 0
DWIDTH 3 0
BBX 3 5 0 4
BITMAP
E0
A0
E0
A0
E0
ENDCHAR
STARTCHAR parenleft
ENCODING 40
SWIDTH 387 0
DWIDTH 5 0
BBX 5 10 0 -1
BITMAP
30
50
50
A0
C0
E0
60
50
28
10
ENDCHAR
STARTCHAR parenright
ENCODING 41
SWIDTH 386 0
DWIDTH 5 0
BBX 5 10 0 -1
BITMAP
E0
60
70
30
28
30
50
A0
A0
40
ENDCHAR
STARTCHAR asterisk
ENCODING 42
SWIDTH 517 0
DWIDTH 6 0
BBX 6 6 0 3
BITMAP
10
30
EC
48
78
58
ENDCHAR
STARTCHAR plus
ENCODING 43
SWIDTH 458 0
DWIDTH 6 0
BBX 5 5 0 1
BITMAP
30
E8
E8
30
20
ENDCHAR
STARTCHAR comma
ENCODING 44
SWIDTH 228 0
DWIDTH 3 0
BBX 3 4 0 -2
BITMAP
40
A0
C0
80
ENDCHAR
STARTCHAR hyphen
ENCODING 45
SWIDTH 465 0
DWIDTH 6 0
BBX 5 2 0 3
BITMAP
F8
F8
ENDCHAR
STARTCHAR period
ENCODING 46
SWIDTH 202 0
DWIDTH 2 0
BBX 2 2 0 0
BITMAP
C0
C0
ENDCHAR
STARTCHAR slash
ENCODING 47
SWIDTH 453 0
DWIDTH 5 0
BBX 5 8 0 0
BITMAP
18
28
30
50
50
60
A0
E0
ENDCHAR
STARTCHAR zero
ENCODING 48
SWIDTH 646 0
DWIDTH 8 0
BBX 8 9 0 0
BITMAP
10
28
74
9A
E5
AD
76
24
18
ENDCHAR
STARTCHAR one
ENCODING 49
SWIDTH 400 0
DWIDTH 5 0
BBX 5 8 0 0
BITMAP
78
A8
F0
28
28
38
28
38
ENDCHAR
STARTCHAR two
ENCODING 50
SWIDTH 502 0
DWIDTH 6 0
BBX 6 8 0 0
BITMAP
70
A8
D4
1C
38
D0
AC
FC
ENDCHAR
STARTCHAR three
ENCODING 51
SWIDTH 456 0
DWIDTH 5 0
BBX 5 8 0 0
BITMAP
F8
98
68
B0
48
38
E8
F0
ENDCHAR
STARTCHAR four
ENCODING 52
SWIDTH 514 0
DWIDTH 6 0
BBX 6 8 0 0
BITMAP
3C
54
78
BC
D4
7C
14
1C
ENDCHAR
STARTCHAR five
ENCODING 53
SWIDTH 500 0
DWIDTH 6 0
BBX 6 8 0 0
BITMAP
FC
B8
E0
98
74
0C
F4
FC
ENDCHAR
STARTCHAR six
ENCODING 54
SWIDTH 520 0
DWIDTH 6 0
BBX 6 8 0 0
BITMAP
70
50
60
78
EC
BC
A4
F8
ENDCHAR
STARTCHAR seven
ENCODING 55
SWIDTH 423 0
DWIDTH 5 0
BBX 5 8 0 0
BITMAP
F8
D8
38
28
30
50
50
70
ENDCHAR
STARTCHAR eight
ENCODING 56
SWIDTH 527 0
DWIDTH 6 0
BBX 6 8 0 0
BITMAP
FC
FC
74
58
68
78
B4
7C
ENDCHAR
STARTCHAR nine
ENCODING 57
SWIDTH 500 0
DWIDTH 6 0
BBX 6 8 0 0
BITMAP
7C
AC
F4
98
68
38
50
70
ENDCHAR
STARTCHAR colon
ENCODING 58
SWIDTH 245 0
DWIDTH 3 0
BBX 2 6 0 0
BITMAP
C0
40
00
00
40
C0
ENDCHAR
STARTCHAR semicolon
ENCODING 59
SWIDTH 270 0
DWIDTH 3 0
BBX 3 8 0 -2
BITMAP
60
60
00
00
40
A0
C0
80
ENDCHAR
STARTCHAR less
ENCODING 60
SWIDTH 445 0
DWIDTH 5 0
BBX 5 6 0 1
BITMAP
38
68
B0
D0
68
18
ENDCHAR
STARTCHAR equal
ENCODING 61
SWIDTH 484 0
DWIDTH 6 0
BBX 5 5 0 2
BITMAP
F8
98
60
F8
F8
ENDCHAR
STARTCHAR greater
ENCODING 62
SWIDTH 445 0
DWIDTH 5 0
BBX 5 6 0 1
BITMAP
E0
78
28
38
F0
E0
ENDCHAR
STARTCHAR question
ENCODING 63
SWIDTH 455 0
DWIDTH 5 0
BBX 5 8 0 0
BITMAP
F0
E8
38
50
60
60
60
60
ENDCHAR
STARTCHAR at
ENCODING 64
SWIDTH 812 0
DWIDTH 10 0
BBX 10 10 0 -1
BITMAP
7D00
D680
BA80
7F80
A980
FF40
A540
BA80
7800
0800
ENDCHAR
STARTCHAR A
ENCODING 65
SWIDTH 507 0
DWIDTH 6 0
BBX 6 8 0 0
BITMAP
70
50
68
78
FC
B4
BC
EC
ENDCHAR
STARTCHAR B
ENCODING 66
SWIDTH 533 0
DWIDTH 6 0
BBX 6 10 0 -1
BITMAP
70
88
E4
FC
B8
F4
BC
54
B8
40
ENDCHAR
STARTCHAR C
ENCODING 67
SWIDTH 515 0
DWIDTH 6 0
BBX 6 9 0 0
BITMAP
60
5C
7C
60
A0
E0
AC
B4
FC
ENDCHAR
STARTCHAR D
ENCODING 68
SWIDTH 520 0
DWIDTH 6 0
BBX 6 9 0 0
BITMAP
20
50
A8
F4
AC
F4
A8
A8
F0
ENDCHAR
STARTCHAR E
ENCODING 69
SWIDTH 490 0
DWIDTH 6 0
BBX 6 8 0 0
BITMAP
FC
BC
E0
B8
F8
A0
BC
FC
ENDCHAR
STARTCHAR F
ENCODING 70
SWIDTH 475 0
DWIDTH 6 0
BBX 6 8 0 0
BITMAP
FC
BC
E0
B8
F8
A0
A0
E0
ENDCHAR
STARTCHAR G
ENCODING 71
SWIDTH 557 0
DWIDTH 7 0
BBX 7 9 0 0
BITMAP
60
5C
7C
60
AE
EA
AE
BA
FE
ENDCHAR
STARTCHAR H
ENCODING 72
SWIDTH 611 0
DWIDTH 7 0
BBX 7 9 0 0
BITMAP
44
AA
AA
EE
AA
F6
A6
BA
EE
ENDCHAR
STARTCHAR I
ENCODING 73
SWIDTH 266 0
DWIDTH 3 0
BBX 3 8 0 0
BITMAP
E0
A0
E0
A0
E0
A0
A0
E0
ENDCHAR
STARTCHAR J
ENCODING 74
SWIDTH 484 0
DWIDTH 6 0
BBX 6 8 0 0
BITMAP
1C
14
18
14
DC
B4
54
3C
ENDCHAR
STARTCHAR K
ENCODING 75
SWIDTH 541 0
DWIDTH 7 0
BBX 7 8 0 0
BITMAP
EE
B2
EC
A8
F8
B4
B4
EC
ENDCHAR
STARTCHAR L
ENCODING 76
SWIDTH 467 0
DWIDTH 6 0
BBX 6 8 0 0
BITMAP
E0
A0
E0
A0
E0
A0
BC
F4
ENDCHAR
STARTCHAR M
ENCODING 77
SWIDTH 733 0
DWIDTH 9 0
BBX 9 8 0 0
BITMAP
7700
7500
BB00
AB00
EB00
BE80
B680
FF80
ENDCHAR
STARTCHAR N
ENCODING 78
SWIDTH 598 0
DWIDTH 7 0
BBX 7 8 0 0
BITMAP
EE
BA
EE
AA
EA
B6
B2
EE
ENDCHAR
STARTCHAR O
ENCODING 79
SWIDTH 612 0
DWIDTH 7 0
BBX 7 9 0 0
BITMAP
60
5E
7C
66
AA
EA
AE
B2
FE
ENDCHAR
STARTCHAR P
ENCODING 80
SWIDTH 513 0
DWIDTH 6 0
BBX 6 9 0 0
BITMAP
60
98
F4
EC
B4
E8
B0
A0
E0
ENDCHAR
STARTCHAR Q
ENCODING 81
SWIDTH 612 0
DWIDTH 7 0
BBX 7 11 0 -2
BITMAP
60
5E
7C
66
AA
EA
AE
B2
DE
68
18
ENDCHAR
STARTCHAR R
ENCODING 82
SWIDTH 532 0
DWIDTH 6 0
BBX 6 9 0 0
BITMAP
60
98
F4
6C
BC
A8
FC
AC
EC
ENDCHAR
STARTCHAR S
ENCODING 83
SWIDTH 442 0
DWIDTH 5 0
BBX 5 9 0 0
BITMAP
18
E8
B0
60
50
38
28
E8
F8
ENDCHAR
STARTCHAR T
ENCODING 84
SWIDTH 453 0
DWIDTH 5 0
BBX 6 9 0 0
BITMAP
D8
A4
F8
70
50
50
70
50
70
ENDCHAR
STARTCHAR U
ENCODING 85
SWIDTH 583 0
DWIDTH 7 0
BBX 7 8 0 0
BITMAP
6E
6A
AC
AA
EA
AC
B2
7E
ENDCHAR
STARTCHAR V
ENCODING 86
SWIDTH 506 0
DWIDTH 6 0
BBX 6 8 0 0
BITMAP
EC
AC
FC
B4
58
78
68
78
ENDCHAR
STARTCHAR W
ENCODING 87
SWIDTH 735 0
DWIDTH 9 0
BBX 9 8 0 0
BITMAP
CB80
B680
F280
AD00
7D00
6F00
2D00
3F00
ENDCHAR
STARTCHAR X
ENCODING 88
SWIDTH 483 0
DWIDTH 6 0
BBX 6 8 0 0
BITMAP
FC
B4
78
48
58
78
B4
DC
ENDCHAR
STARTCHAR Y
ENCODING 89
SWIDTH 484 0
DWIDTH 6 0
BBX 6 8 0 0
BITMAP
CC
B4
D4
68
28
30
50
70
ENDCHAR
STARTCHAR Z
ENCODING 90
SWIDTH 458 0
DWIDTH 6 0
BBX 6 8 0 0
BITMAP
F8
7C
28
30
50
A0
B8
F8
ENDCHAR
STARTCHAR bracketleft
ENCODING 91
SWIDTH 420 0
DWIDTH 5 0
BBX 5 10 0 -1
BITMAP
78
B8
A0
E0
A0
A0
E0
B0
A8
78
ENDCHAR
STARTCHAR backslash
ENCODING 92
SWIDTH 453 0
DWIDTH 5 0
BBX 5 8 0 0
BITMAP
E0
A0
50
50
30
28
28
18
ENDCHAR
STARTCHAR bracketright
ENCODING 93
SWIDTH 420 0
DWIDTH 5 0
BBX 5 10 0 -1
BITMAP
F0
E8
28
38
28
28
38
68
A8
F0
ENDCHAR
STARTCHAR asciicircum
ENCODING 94
SWIDTH 353 0
DWIDTH 4 0
BBX 4 3 0 5
BITMAP
60
A0
F0
ENDCHAR
STARTCHAR underscore
ENCODING 95
SWIDTH 499 0
DWIDTH 6 0
BBX 5 2 0 -3
BITMAP
F8
F8
ENDCHAR
STARTCHAR grave
ENCODING 96
SWIDTH 183 0
DWIDTH 2 0
BBX 2 3 0 9
BITMAP
40
C0
40
ENDCHAR
STARTCHAR a
ENCODING 97
SWIDTH 507 0
DWIDTH 6 0
BBX 6 8 0 0
BITMAP
70
50
68
78
FC
B4
BC
EC
ENDCHAR
STARTCHAR b
ENCODING 98
SWIDTH 533 0
DWIDTH 6 0
BBX 6 10 0 -1
BITMAP
70
88
E4
FC
B8
F4
BC
54
B8
40
ENDCHAR
STARTCHAR c
ENCODING 99
SWIDTH 515 0
DWIDTH 6 0
BBX 6 9 0 0
BITMAP
60
5C
7C
60
A0
E0
AC
B4
FC
ENDCHAR
STARTCHAR d
ENCODING 100
SWIDTH 520 0
DWIDTH 6 0
BBX 6 9 0 0
BITMAP
20
50
A8
F4
AC
F4
A8
A8
F0
ENDCHAR
STARTCHAR e
ENCODING 101
SWIDTH 490 0
DWIDTH 6 0
BBX 6 8 0 0
BITMAP
FC
BC
E0
B8
F8
A0
BC
FC
ENDCHAR
STARTCHAR f
ENCODING 102
SWIDTH 475 0
DWIDTH 6 0
BBX 6 8 0 0
BITMAP
FC
BC
E0
B8
F8
A0
A0
E0
ENDCHAR
STARTCHAR g
ENCODING 103
SWIDTH 557 0
DWIDTH 7 0
BBX 7 9 0 0
BITMAP
60
5C
7C
60
AE
EA
AE
BA
FE
ENDCHAR
STARTCHAR h
ENCODING 104
SWIDTH 611 0
DWIDTH 7 0
BBX 7 9 0 0
BITMAP
44
AA
AA
EE
AA
F6
A6
BA
EE
ENDCHAR
STARTCHAR i
ENCODING 105
SWIDTH 266 0
DWIDTH 3 0
BBX 3 8 0 0
BITMAP
E0
A0
E0
A0
E0
A0
A0
E0
ENDCHAR
STARTCHAR j
ENCODING 106
SWIDTH 482 0
DWIDTH 6 0
BBX 6 8 0 0
BITMAP
1C
14
18
14
DC
B4
54
3C
ENDCHAR
STARTCHAR k
ENCODING 107
SWIDTH 541 0
DWIDTH 7 0
BBX 7 8 0 0
BITMAP
EE
B2
EC
A8
F8
B4
B4
EC
ENDCHAR
STARTCHAR l
ENCODING 108
SWIDTH 467 0
DWIDTH 6 0
BBX 6 8 0 0
BITMAP
E0
A0
E0
A0
E0
A0
BC
F4
ENDCHAR
STARTCHAR m
ENCODING 109
SWIDTH 733 0
DWIDTH 9 0
BBX 9 8 0 0
BITMAP
7700
7500
BB00
AB00
EB00
BE80
B680
FF80
ENDCHAR
STARTCHAR n
ENCODING 110
SWIDTH 598 0
DWIDTH 7 0
BBX 7 8 0 0
BITMAP
EE
BA
EE
AA
EA
B6
B2
EE
ENDCHAR
STARTCHAR o
ENCODING 111
SWIDTH 612 0
DWIDTH 7 0
BBX 7 9 0 0
BITMAP
60
5E
7C
66
AA
EA
AE
B2
FE
ENDCHAR
STARTCHAR p
ENCODING 112
SWIDTH 513 0
DWIDTH 6 0
BBX 6 9 0 0
BITMAP
60
98
F4
EC
B4
E8
B0
A0
E0
ENDCHAR
STARTCHAR q
ENCODING 113
SWIDTH 612 0
DWIDTH 7 0
BBX 7 11 0 -2
BITMAP
60
5E
7C
66
AA
EA
AE
B2
DE
68
18
ENDCHAR
STARTCHAR r
ENCODING 114
SWIDTH 532 0
DWIDTH 6 0
BBX 6 9 0 0
BITMAP
60
98
F4
6C
BC
A8
FC
AC
EC
ENDCHAR
STARTCHAR s
ENCODING 115
SWIDTH 442 0
DWIDTH 5 0
BBX 5 9 0 0
BITMAP
18
E8
B0
60
50
38
28
E8
F8
ENDCHAR
STARTCHAR t
ENCODING 116
SWIDTH 453 0
DWIDTH 5 0
BBX 6 9 0 0
BITMAP
D8
A4
F8
70
50
50
70
50
70
ENDCHAR
STARTCHAR u
ENCODING 117
SWIDTH 583 0
DWIDTH 7 0
BBX 7 8 0 0
BITMAP
6E
6A
AC
AA
EA
AC
B2
7E
ENDCHAR
STARTCHAR v
ENCODING 118
SWIDTH 506 0
DWIDTH 6 0
BBX 6 8 0 0
BITMAP
EC
AC
FC
B4
58
78
68
78
ENDCHAR
STARTCHAR w
ENCODING 119
SWIDTH 735 0
DWIDTH 9 0
BBX 9 8 0 0
BITMAP
CB80
B680
F280
AD00
7D00
6F00
2D00
3F00
ENDCHAR
STARTCHAR x
ENCODING 120
SWIDTH 483 0
DWIDTH 6 0
BBX 6 8 0 0
BITMAP
FC
B4
78
48
58
78
B4
DC
ENDCHAR
STARTCHAR y
ENCODING 121
SWIDTH 484 0
DWIDTH 6 0
BBX 6 8 0 0
BITMAP
CC
B4
D4
68
28
30
50
70
ENDCHAR
STARTCHAR z
ENCODING 122
SWIDTH 458 0
DWIDTH 6 0
BBX 6 8 0 0
BITMAP
F8
7C
28
30
50
A0
B8
F8
ENDCHAR
STARTCHAR braceleft
ENCODING 123
SWIDTH 473 0
DWIDTH 6 0
BBX 6 10 0 -1
BITMAP
3C
58
30
68
90
E8
30
50
5C
28
ENDCHAR
STARTCHAR bar
ENCODING 124
SWIDTH 263 0
DWIDTH 3 0
BBX 3 10 0 -1
BITMAP
E0
A0
A0
E0
A0
E0
A0
A0
A0
40
ENDCHAR
STARTCHAR braceright
ENCODING 125
SWIDTH 473 0
DWIDTH 6 0
BBX 6 10 0 -1
BITMAP
F0
A8
50
78
44
78
50
68
A8
D0
ENDCHAR
STARTCHAR asciitilde
ENCODING 126
SWIDTH 456 0
DWIDTH 5 0
BBX 5 3 0 3
BITMAP
78
A8
F0
ENDCHAR
STARTCHAR nonbreakingspace
ENCODING 160
SWIDTH 200 0
DWIDTH 2 0
BBX 1 1 0 0
BITMAP
00
ENDCHAR
STARTCHAR exclamdown
ENCODING 161
SWIDTH 259 0
DWIDTH 3 0
BBX 3 8 0 0
BITMAP
E0
40
A0
A0
A0
E0
A0
E0
ENDCHAR
STARTCHAR cent
ENCODING 162
SWIDTH 480 0
DWIDTH 6 0
BBX 5 11 0 -2
BITMAP
30
38
58
90
E0
A0
B0
58
38
30
10
ENDCHAR
STARTCHAR sterling
ENCODING 163
SWIDTH 594 0
DWIDTH 7 0
BBX 7 8 0 0
BITMAP
38
24
7C
DC
DC
70
5E
7E
ENDCHAR
STARTCHAR currency
ENCODING 164
SWIDTH 640 0
DWIDTH 8 0
BBX 7 7 0 1
BITMAP
D2
BE
5A
96
7E
AE
DE
ENDCHAR
STARTCHAR yen
ENCODING 165
SWIDTH 575 0
DWIDTH 7 0
BBX 7 8 0 0
BITMAP
EE
AA
7C
34
5C
4C
30
30
ENDCHAR
STARTCHAR brokenbar
ENCODING 166
SWIDTH 258 0
DWIDTH 3 0
BBX 3 10 0 -1
BITMAP
E0
E0
A0
A0
40
40
A0
60
A0
E0
ENDCHAR
STARTCHAR section
ENCODING 167
SWIDTH 474 0
DWIDTH 6 0
BBX 5 9 0 0
BITMAP
68
98
F0
A8
78
B8
68
B8
F8
ENDCHAR
STARTCHAR dieresis
ENCODING 168
SWIDTH 351 0
DWIDTH 4 0
BBX 4 2 0 9
BITMAP
F0
F0
ENDCHAR
STARTCHAR copyright
ENCODING 169
SWIDTH 719 0
DWIDTH 9 0
BBX 8 9 0 0
BITMAP
75
BF
C3
DF
D3
B7
DF
BF
7F
ENDCHAR
STARTCHAR ordfeminine
ENCODING 170
SWIDTH 455 0
DWIDTH 5 0
BBX 6 8 0 0
BITMAP
78
68
78
E8
B4
D8
A8
78
ENDCHAR
STARTCHAR guillemotleft
ENCODING 171
SWIDTH 689 0
DWIDTH 8 0
BBX 8 5 0 2
BITMAP
33
55
AA
EE
77
ENDCHAR
STARTCHAR logicalnot
ENCODING 172
SWIDTH 591 0
DWIDTH 7 0
BBX 7 5 0 0
BITMAP
FC
BA
4A
0A
04
ENDCHAR
STARTCHAR uni00AD
ENCODING 173
SWIDTH 465 0
DWIDTH 6 0
BBX 5 2 0 3
BITMAP
F8
F8
ENDCHAR
STARTCHAR registered
ENCODING 174
SWIDTH 719 0
DWIDTH 9 0
BBX 8 9 0 0
BITMAP
75
BF
C3
DF
DF
AB
D3
BF
7F
ENDCHAR
STARTCHAR macron
ENCODING 175
SWIDTH 263 0
DWIDTH 3 0
BBX 3 2 0 9
BITMAP
A0
E0
ENDCHAR
STARTCHAR degree
ENCODING 176
SWIDTH 333 0
DWIDTH 4 0
BBX 4 3 0 5
BITMAP
70
B0
F0
ENDCHAR
STARTCHAR plusminus
ENCODING 177
SWIDTH 464 0
DWIDTH 6 0
BBX 5 7 0 -1
BITMAP
30
E8
E8
30
20
D8
F8
ENDCHAR
STARTCHAR twosuperior
ENCODING 178
SWIDTH 324 0
DWIDTH 4 0
BBX 4 4 0 4
BITMAP
F0
70
A0
F0
ENDCHAR
STARTCHAR threesuperior
ENCODING 179
SWIDTH 332 0
DWIDTH 4 0
BBX 4 5 0 3
BITMAP
F0
70
50
B0
40
ENDCHAR
STARTCHAR acute
ENCODING 180
SWIDTH 202 0
DWIDTH 2 0
BBX 2 3 0 9
BITMAP
40
C0
80
ENDCHAR
STARTCHAR mu
ENCODING 181
SWIDTH 582 0
DWIDTH 7 0
BBX 7 10 0 -2
BITMAP
EE
6C
AC
EA
AE
AA
F4
BE
A0
40
ENDCHAR
STARTCHAR paragraph
ENCODING 182
SWIDTH 556 0
DWIDTH 7 0
BBX 6 9 0 0
BITMAP
18
64
BC
EC
54
2C
14
0C
1C
ENDCHAR
STARTCHAR periodcentered
ENCODING 183
SWIDTH 215 0
DWIDTH 3 0
BBX 2 2 0 3
BITMAP
C0
40
ENDCHAR
STARTCHAR cedilla
ENCODING 184
SWIDTH 237 0
DWIDTH 3 0
BBX 3 4 0 -3
BITMAP
60
60
A0
C0
ENDCHAR
STARTCHAR onesuperior
ENCODING 185
SWIDTH 286 0
DWIDTH 3 0
BBX 3 4 0 4
BITMAP
60
E0
60
60
ENDCHAR
STARTCHAR ordmasculine
ENCODING 186
SWIDTH 476 0
DWIDTH 6 0
BBX 6 8 0 0
BITMAP
FC
F4
B4
B8
D4
78
68
78
ENDCHAR
STARTCHAR guillemotright
ENCODING 187
SWIDTH 689 0
DWIDTH 8 0
BBX 8 5 0 2
BITMAP
CC
BB
55
77
EE
ENDCHAR
STARTCHAR onequarter
ENCODING 188
SWIDTH 790 0
DWIDTH 9 0
BBX 9 8 0 0
BITMAP
7C00
FC00
5C00
5500
3680
1D80
1A80
1980
ENDCHAR
STARTCHAR onehalf
ENCODING 189
SWIDTH 771 0
DWIDTH 9 0
BBX 9 8 0 0
BITMAP
7C00
FC00
5C00
5600
3580
1A80
1B00
1B80
ENDCHAR
STARTCHAR threequarters
ENCODING 190
SWIDTH 817 0
DWIDTH 10 0
BBX 10 8 0 0
BITMAP
FE00
7A00
5C00
B480
4D80
1740
1B80
08C0
ENDCHAR
STARTCHAR questiondown
ENCODING 191
SWIDTH 455 0
DWIDTH 5 0
BBX 5 8 0 0
BITMAP
38
10
38
30
50
B0
E8
38
ENDCHAR
STARTCHAR Agrave
ENCODING 192
SWIDTH 507 0
DWIDTH 6 0
BBX 6 12 0 0
BITMAP
20
50
30
20
50
50
68
78
FC
B4
BC
EC
ENDCHAR
STARTCHAR Aacute
ENCODING 193
SWIDTH 507 0
DWIDTH 6 0
BBX 6 12 0 0
BITMAP
08
18
38
20
50
50
68
78
FC
B4
BC
EC
ENDCHAR
STARTCHAR Acircumflex
ENCODING 194
SWIDTH 507 0
DWIDTH 6 0
BBX 6 12 0 0
BITMAP
30
50
78
20
50
50
68
78
FC
B4
BC
EC
ENDCHAR
STARTCHAR Atilde
ENCODING 195
SWIDTH 507 0
DWIDTH 6 0
BBX 6 12 0 0
BITMAP
7C
74
58
20
50
50
68
78
FC
B4
BC
EC
ENDCHAR
STARTCHAR Adieresis
ENCODING 196
SWIDTH 507 0
DWIDTH 6 0
BBX 6 11 0 0
BITMAP
78
58
20
50
50
68
78
FC
B4
BC
EC
ENDCHAR
STARTCHAR Aring
ENCODING 197
SWIDTH 507 0
DWIDTH 6 0
BBX 6 12 0 0
BITMAP
30
78
58
20
50
50
68
78
FC
B4
BC
EC
ENDCHAR
STARTCHAR AE
ENCODING 198
SWIDTH 797 0
DWIDTH 10 0
BBX 10 8 0 0
BITMAP
1FC0
2B80
2C00
5B80
5E80
AB00
BAC0
CFC0
ENDCHAR
STARTCHAR Ccedilla
ENCODING 199
SWIDTH 515 0
DWIDTH 6 0
BBX 6 12 0 -3
BITMAP
60
5C
7C
60
A0
E0
AC
B4
EC
50
78
20
ENDCHAR
STARTCHAR Egrave
ENCODING 200
SWIDTH 490 0
DWIDTH 6 0
BBX 6 12 0 0
BITMAP
20
20
10
48
B4
BC
E0
B8
F8
A0
BC
FC
ENDCHAR
STARTCHAR Eacute
ENCODING 201
SWIDTH 490 0
DWIDTH 6 0
BBX 6 12 0 0
BITMAP
10
18
30
48
B4
BC
E0
B8
F8
A0
BC
FC
ENDCHAR
STARTCHAR Ecircumflex
ENCODING 202
SWIDTH 490 0
DWIDTH 6 0
BBX 6 12 0 0
BITMAP
30
50
78
48
B4
BC
E0
B8
F8
A0
BC
FC
ENDCHAR
STARTCHAR Edieresis
ENCODING 203
SWIDTH 490 0
DWIDTH 6 0
BBX 6 11 0 0
BITMAP
78
78
48
B4
BC
E0
B8
F8
A0
BC
FC
ENDCHAR
STARTCHAR Igrave
ENCODING 204
SWIDTH 266 0
DWIDTH 3 0
BBX 3 12 0 0
BITMAP
C0
C0
C0
40
A0
A0
E0
A0
E0
A0
A0
E0
ENDCHAR
STARTCHAR Iacute
ENCODING 205
SWIDTH 266 0
DWIDTH 3 0
BBX 4 12 0 0
BITMAP
20
50
60
40
A0
A0
E0
A0
E0
A0
A0
E0
ENDCHAR
STARTCHAR Icircumflex
ENCODING 206
SWIDTH 266 0
DWIDTH 3 0
BBX 4 12 0 0
BITMAP
60
E0
B0
40
A0
A0
E0
A0
E0
A0
A0
E0
ENDCHAR
STARTCHAR Idieresis
ENCODING 207
SWIDTH 266 0
DWIDTH 3 0
BBX 4 11 0 0
BITMAP
F0
B0
40
A0
A0
E0
A0
E0
A0
A0
E0
ENDCHAR
STARTCHAR Eth
ENCODING 208
SWIDTH 669 0
DWIDTH 8 0
BBX 8 9 0 0
BITMAP
18
24
3A
3D
D3
F5
2E
2C
38
ENDCHAR
STARTCHAR Ntilde
ENCODING 209
SWIDTH 598 0
DWIDTH 7 0
BBX 7 12 0 0
BITMAP
34
3C
78
44
AA
BA
EE
AA
EA
B6
B2
EE
ENDCHAR
STARTCHAR Ograve
ENCODING 210
SWIDTH 612 0
DWIDTH 7 0
BBX 7 12 0 0
BITMAP
10
28
18
60
5E
7C
66
AA
EA
AE
B2
FE
ENDCHAR
STARTCHAR Oacute
ENCODING 211
SWIDTH 612 0
DWIDTH 7 0
BBX 7 12 0 0
BITMAP
08
0C
18
60
5E
7C
66
AA
EA
AE
B2
FE
ENDCHAR
STARTCHAR Ocircumflex
ENCODING 212
SWIDTH 612 0
DWIDTH 7 0
BBX 7 12 0 0
BITMAP
18
34
2C
60
5E
7C
66
AA
EA
AE
B2
FE
ENDCHAR
STARTCHAR Otilde
ENCODING 213
SWIDTH 612 0
DWIDTH 7 0
BBX 7 12 0 0
BITMAP
3E
3C
6C
60
5E
7C
66
AA
EA
AE
B2
FE
ENDCHAR
STARTCHAR Odieresis
ENCODING 214
SWIDTH 612 0
DWIDTH 7 0
BBX 7 11 0 0
BITMAP
7C
5C
60
5E
7C
66
AA
EA
AE
B2
FE
ENDCHAR
STARTCHAR multiply
ENCODING 215
SWIDTH 421 0
DWIDTH 5 0
BBX 5 4 0 2
BITMAP
F8
98
68
F8
ENDCHAR
STARTCHAR Oslash
ENCODING 216
SWIDTH 612 0
DWIDTH 7 0
BBX 7 9 0 0
BITMAP
64
5A
6A
5E
AA
EA
BE
D2
FE
ENDCHAR
STARTCHAR Ugrave
ENCODING 217
SWIDTH 583 0
DWIDTH 7 0
BBX 7 12 0 0
BITMAP
10
30
10
04
6A
6A
AC
AA
EA
AC
B2
7E
ENDCHAR
STARTCHAR Uacute
ENCODING 218
SWIDTH 583 0
DWIDTH 7 0
BBX 7 12 0 0
BITMAP
08
18
10
04
6A
6A
AC
AA
EA
AC
B2
7E
ENDCHAR
STARTCHAR Ucircumflex
ENCODING 219
SWIDTH 583 0
DWIDTH 7 0
BBX 7 12 0 0
BITMAP
30
38
7C
04
6A
6A
AC
AA
EA
AC
B2
7E
ENDCHAR
STARTCHAR Udieresis
ENCODING 220
SWIDTH 583 0
DWIDTH 7 0
BBX 7 11 0 0
BITMAP
7C
7C
04
6A
6A
AC
AA
EA
AC
B2
7E
ENDCHAR
STARTCHAR Yacute
ENCODING 221
SWIDTH 484 0
DWIDTH 6 0
BBX 6 11 0 0
BITMAP
10
18
30
CC
B4
D4
68
28
30
50
70
ENDCHAR
STARTCHAR Thorn
ENCODING 222
SWIDTH 520 0
DWIDTH 6 0
BBX 6 8 0 0
BITMAP
E0
D8
54
AC
F4
A8
B0
E0
ENDCHAR
STARTCHAR germandbls
ENCODING 223
SWIDTH 884 0
DWIDTH 11 0
BBX 11 9 0 0
BITMAP
1940
E6A0
BDC0
6380
5280
39C0
2940
E6A0
FFC0
ENDCHAR
STARTCHAR agrave
ENCODING 224
SWIDTH 507 0
DWIDTH 6 0
BBX 6 12 0 0
BITMAP
20
50
30
20
50
50
68
78
FC
B4
BC
EC
ENDCHAR
STARTCHAR aacute
ENCODING 225
SWIDTH 507 0
DWIDTH 6 0
BBX 6 12 0 0
BITMAP
08
18
38
20
50
50
68
78
FC
B4
BC
EC
ENDCHAR
STARTCHAR acircumflex
ENCODING 226
SWIDTH 507 0
DWIDTH 6 0
BBX 6 12 0 0
BITMAP
30
50
78
20
50
50
68
78
FC
B4
BC
EC
ENDCHAR
STARTCHAR atilde
ENCODING 227
SWIDTH 507 0
DWIDTH 6 0
BBX 6 12 0 0
BITMAP
7C
74
58
20
50
50
68
78
FC
B4
BC
EC
ENDCHAR
STARTCHAR adieresis
ENCODING 228
SWIDTH 507 0
DWIDTH 6 0
BBX 6 11 0 0
BITMAP
78
58
20
50
50
68
78
FC
B4
BC
EC
ENDCHAR
STARTCHAR aring
ENCODING 229
SWIDTH 507 0
DWIDTH 6 0
BBX 6 12 0 0
BITMAP
30
78
58
20
50
50
68
78
FC
B4
BC
EC
ENDCHAR
STARTCHAR ae
ENCODING 230
SWIDTH 797 0
DWIDTH 10 0
BBX 10 8 0 0
BITMAP
1FC0
2B80
2C00
5B80
5E80
AB00
BAC0
CFC0
ENDCHAR
STARTCHAR ccedilla
ENCODING 231
SWIDTH 515 0
DWIDTH 6 0
BBX 6 12 0 -3
BITMAP
60
5C
7C
60
A0
E0
AC
B4
EC
50
78
20
ENDCHAR
STARTCHAR egrave
ENCODING 232
SWIDTH 490 0
DWIDTH 6 0
BBX 6 12 0 0
BITMAP
20
20
10
48
B4
BC
E0
B8
F8
A0
BC
FC
ENDCHAR
STARTCHAR eacute
ENCODING 233
SWIDTH 490 0
DWIDTH 6 0
BBX 6 12 0 0
BITMAP
10
18
30
48
B4
BC
E0
B8
F8
A0
BC
FC
ENDCHAR
STARTCHAR ecircumflex
ENCODING 234
SWIDTH 490 0
DWIDTH 6 0
BBX 6 12 0 0
BITMAP
30
50
78
48
B4
BC
E0
B8
F8
A0
BC
FC
ENDCHAR
STARTCHAR edieresis
ENCODING 235
SWIDTH 490 0
DWIDTH 6 0
BBX 6 11 0 0
BITMAP
78
78
48
B4
BC
E0
B8
F8
A0
BC
FC
ENDCHAR
STARTCHAR igrave
ENCODING 236
SWIDTH 266 0
DWIDTH 3 0
BBX 3 12 0 0
BITMAP
C0
C0
C0
40
A0
A0
E0
A0
E0
A0
A0
E0
ENDCHAR
STARTCHAR iacute
ENCODING 237
SWIDTH 266 0
DWIDTH 3 0
BBX 4 12 0 0
BITMAP
20
50
60
40
A0
A0
E0
A0
E0
A0
A0
E0
ENDCHAR
STARTCHAR icircumflex
ENCODING 238
SWIDTH 266 0
DWIDTH 3 0
BBX 4 12 0 0
BITMAP
60
E0
B0
40
A0
A0
E0
A0
E0
A0
A0
E0
ENDCHAR
STARTCHAR idieresis
ENCODING 239
SWIDTH 266 0
DWIDTH 3 0
BBX 4 11 0 0
BITMAP
F0
B0
40
A0
A0
E0
A0
E0
A0
A0
E0
ENDCHAR
STARTCHAR eth
ENCODING 240
SWIDTH 669 0
DWIDTH 8 0
BBX 8 9 0 0
BITMAP
18
24
3A
3D
D3
F5
2E
2C
38
ENDCHAR
STARTCHAR ntilde
ENCODING 241
SWIDTH 598 0
DWIDTH 7 0
BBX 7 12 0 0
BITMAP
34
3C
78
44
AA
BA
EE
AA
EA
B6
B2
EE
ENDCHAR
STARTCHAR ograve
ENCODING 242
SWIDTH 612 0
DWIDTH 7 0
BBX 7 12 0 0
BITMAP
10
28
18
60
5E
7C
66
AA
EA
AE
B2
FE
ENDCHAR
STARTCHAR oacute
ENCODING 243
SWIDTH 612 0
DWIDTH 7 0
BBX 7 12 0 0
BITMAP
08
0C
18
60
5E
7C
66
AA
EA
AE
B2
FE
ENDCHAR
STARTCHAR ocircumflex
ENCODING 244
SWIDTH 612 0
DWIDTH 7 0
BBX 7 12 0 0
BITMAP
18
34
2C
60
5E
7C
66
AA
EA
AE
B2
FE
ENDCHAR
STARTCHAR otilde
ENCODING 245
SWIDTH 612 0
DWIDTH 7 0
BBX 7 12 0 0
BITMAP
3E
3C
6C
60
5E
7C
66
AA
EA
AE
B2
FE
ENDCHAR
STARTCHAR odieresis
ENCODING 246
SWIDTH 612 0
DWIDTH 7 0
BBX 7 11 0 0
BITMAP
7C
5C
60
5E
7C
66
AA
EA
AE
B2
FE
ENDCHAR
STARTCHAR divide
ENCODING 247
SWIDTH 457 0
DWIDTH 5 0
BBX 5 6 0 1
BITMAP
30
20
F8
F8
20
30
ENDCHAR
STARTCHAR oslash
ENCODING 248
SWIDTH 612 0
DWIDTH 7 0
BBX 7 9 0 0
BITMAP
64
5A
6A
5E
AA
EA
BE
D2
FE
ENDCHAR
STARTCHAR ugrave
ENCODING 249
SWIDTH 583 0
DWIDTH 7 0
BBX 7 12 0 0
BITMAP
10
30
10
04
6A
6A
AC
AA
EA
AC
B2
7E
ENDCHAR
STARTCHAR uacute
ENCODING 250
SWIDTH 583 0
DWIDTH 7 0
BBX 7 12 0 0
BITMAP
08
18
10
04
6A
6A
AC
AA
EA
AC
B2
7E
ENDCHAR
STARTCHAR ucircumflex
ENCODING 251
SWIDTH 583 0
DWIDTH 7 0
BBX 7 12 0 0
BITMAP
30
38
7C
04
6A
6A
AC
AA
EA
AC
B2
7E
ENDCHAR
STARTCHAR udieresis
ENCODING 252
SWIDTH 583 0
DWIDTH 7 0
BBX 7 11 0 0
BITMAP
7C
7C
04
6A
6A
AC
AA
EA
AC
B2
7E
ENDCHAR
STARTCHAR yacute
ENCODING 253
SWIDTH 484 0
DWIDTH 6 0
BBX 6 11 0 0
BITMAP
10
18
30
CC
B4
D4
68
28
30
50
70
ENDCHAR
STARTCHAR thorn
ENCODING 254
SWIDTH 520 0
DWIDTH 6 0
BBX 6 8 0 0
BITMAP
E0
D8
54
AC
F4
A8
B0
E0
ENDCHAR
STARTCHAR ydieresis
ENCODING 255
SWIDTH 484 0
DWIDTH 6 0
BBX 6 11 0 0
BITMAP
78
78
00
CC
B4
D4
68
28
30
50
70
ENDCHAR
STARTCHAR Amacron
ENCODING 256
SWIDTH 507 0
DWIDTH 6 0
BBX 6 11 0 0
BITMAP
28
58
20
50
50
68
78
FC
B4
BC
EC
ENDCHAR
STARTCHAR amacron
ENCODING 257
SWIDTH 507 0
DWIDTH 6 0
BBX 6 11 0 0
BITMAP
28
58
20
50
50
68
78
FC
B4
BC
EC
ENDCHAR
STARTCHAR Abreve
ENCODING 258
SWIDTH 507 0
DWIDTH 6 0
BBX 6 12 0 0
BITMAP
68
78
78
20
50
50
68
78
FC
B4
BC
EC
ENDCHAR
STARTCHAR abreve
ENCODING 259
SWIDTH 507 0
DWIDTH 6 0
BBX 6 12 0 0
BITMAP
68
78
78
20
50
50
68
78
FC
B4
BC
EC
ENDCHAR
STARTCHAR Aogonek
ENCODING 260
SWIDTH 507 0
DWIDTH 6 0
BBX 6 11 0 -3
BITMAP
70
50
68
78
FC
B4
BC
EC
08
0C
04
ENDCHAR
STARTCHAR aogonek
ENCODING 261
SWIDTH 507 0
DWIDTH 6 0
BBX 6 11 0 -3
BITMAP
70
50
68
78
FC
B4
BC
EC
08
0C
04
ENDCHAR
STARTCHAR Cacute
ENCODING 262
SWIDTH 515 0
DWIDTH 6 0
BBX 6 12 0 0
BITMAP
08
14
18
60
5C
7C
60
A0
E0
AC
B4
FC
ENDCHAR
STARTCHAR cacute
ENCODING 263
SWIDTH 515 0
DWIDTH 6 0
BBX 6 12 0 0
BITMAP
08
14
18
60
5C
7C
60
A0
E0
AC
B4
FC
ENDCHAR
STARTCHAR Ccircumflex
ENCODING 264
SWIDTH 515 0
DWIDTH 6 0
BBX 6 12 0 0
BITMAP
18
38
2C
60
5C
7C
60
A0
E0
AC
B4
FC
ENDCHAR
STARTCHAR ccircumflex
ENCODING 265
SWIDTH 515 0
DWIDTH 6 0
BBX 6 12 0 0
BITMAP
18
38
2C
60
5C
7C
60
A0
E0
AC
B4
FC
ENDCHAR
STARTCHAR Cdotaccent
ENCODING 266
SWIDTH 515 0
DWIDTH 6 0
BBX 6 11 0 0
BITMAP
38
18
60
5C
7C
60
A0
E0
AC
B4
FC
ENDCHAR
STARTCHAR cdotaccent
ENCODING 267
SWIDTH 515 0
DWIDTH 6 0
BBX 6 11 0 0
BITMAP
38
18
60
5C
7C
60
A0
E0
AC
B4
FC
ENDCHAR
STARTCHAR Ccaron
ENCODING 268
SWIDTH 515 0
DWIDTH 6 0
BBX 6 12 0 0
BITMAP
2C
38
30
60
5C
7C
60
A0
E0
AC
B4
FC
ENDCHAR
STARTCHAR ccaron
ENCODING 269
SWIDTH 515 0
DWIDTH 6 0
BBX 6 12 0 0
BITMAP
2C
38
30
60
5C
7C
60
A0
E0
AC
B4
FC
ENDCHAR
STARTCHAR Dcaron
ENCODING 270
SWIDTH 520 0
DWIDTH 6 0
BBX 6 12 0 0
BITMAP
78
50
30
20
50
A8
F4
AC
F4
A8
A8
F0
ENDCHAR
STARTCHAR dcaron
ENCODING 271
SWIDTH 520 0
DWIDTH 6 0
BBX 6 12 0 0
BITMAP
78
50
30
20
50
A8
F4
AC
F4
A8
A8
F0
ENDCHAR
STARTCHAR Dcroat
ENCODING 272
SWIDTH 669 0
DWIDTH 8 0
BBX 8 9 0 0
BITMAP
18
24
3A
3D
D3
F5
2E
2C
38
ENDCHAR
STARTCHAR dcroat
ENCODING 273
SWIDTH 669 0
DWIDTH 8 0
BBX 8 9 0 0
BITMAP
18
24
3A
3D
D3
F5
2E
2C
38
ENDCHAR
STARTCHAR Emacron
ENCODING 274
SWIDTH 490 0
DWIDTH 6 0
BBX 6 11 0 0
BITMAP
30
78
48
B4
BC
E0
B8
F8
A0
BC
FC
ENDCHAR
STARTCHAR emacron
ENCODING 275
SWIDTH 490 0
DWIDTH 6 0
BBX 6 11 0 0
BITMAP
30
78
48
B4
BC
E0
B8
F8
A0
BC
FC
ENDCHAR
STARTCHAR Ebreve
ENCODING 276
SWIDTH 490 0
DWIDTH 6 0
BBX 6 12 0 0
BITMAP
78
78
38
48
B4
BC
E0
B8
F8
A0
BC
FC
ENDCHAR
STARTCHAR ebreve
ENCODING 277
SWIDTH 490 0
DWIDTH 6 0
BBX 6 12 0 0
BITMAP
78
78
38
48
B4
BC
E0
B8
F8
A0
BC
FC
ENDCHAR
STARTCHAR Edotaccent
ENCODING 278
SWIDTH 490 0
DWIDTH 6 0
BBX 6 11 0 0
BITMAP
30
30
48
B4
BC
E0
B8
F8
A0
BC
FC
ENDCHAR
STARTCHAR edotaccent
ENCODING 279
SWIDTH 490 0
DWIDTH 6 0
BBX 6 11 0 0
BITMAP
30
30
48
B4
BC
E0
B8
F8
A0
BC
FC
ENDCHAR
STARTCHAR Eogonek
ENCODING 280
SWIDTH 490 0
DWIDTH 6 0
BBX 6 11 0 -3
BITMAP
FC
BC
E0
B8
F8
A0
BC
FC
18
14
08
ENDCHAR
STARTCHAR eogonek
ENCODING 281
SWIDTH 490 0
DWIDTH 6 0
BBX 6 11 0 -3
BITMAP
FC
BC
E0
B8
F8
A0
BC
FC
18
14
08
ENDCHAR
STARTCHAR Ecaron
ENCODING 282
SWIDTH 490 0
DWIDTH 6 0
BBX 6 12 0 0
BITMAP
78
28
30
48
B4
BC
E0
B8
F8
A0
BC
FC
ENDCHAR
STARTCHAR ecaron
ENCODING 283
SWIDTH 490 0
DWIDTH 6 0
BBX 6 12 0 0
BITMAP
78
28
30
48
B4
BC
E0
B8
F8
A0
BC
FC
ENDCHAR
STARTCHAR Gcircumflex
ENCODING 284
SWIDTH 557 0
DWIDTH 7 0
BBX 7 12 0 0
BITMAP
38
38
2C
60
5C
7C
60
AE
EA
AE
BA
FE
ENDCHAR
STARTCHAR gcircumflex
ENCODING 285
SWIDTH 557 0
DWIDTH 7 0
BBX 7 12 0 0
BITMAP
38
38
2C
60
5C
7C
60
AE
EA
AE
BA
FE
ENDCHAR
STARTCHAR Gbreve
ENCODING 286
SWIDTH 557 0
DWIDTH 7 0
BBX 7 12 0 0
BITMAP
6C
58
38
60
5C
7C
60
AE
EA
AE
BA
FE
ENDCHAR
STARTCHAR gbreve
ENCODING 287
SWIDTH 557 0
DWIDTH 7 0
BBX 7 12 0 0
BITMAP
6C
58
38
60
5C
7C
60
AE
EA
AE
BA
FE
ENDCHAR
STARTCHAR Gdotaccent
ENCODING 288
SWIDTH 557 0
DWIDTH 7 0
BBX 7 11 0 0
BITMAP
38
18
60
5C
7C
60
AE
EA
AE
BA
FE
ENDCHAR
STARTCHAR gdotaccent
ENCODING 289
SWIDTH 557 0
DWIDTH 7 0
BBX 7 11 0 0
BITMAP
38
18
60
5C
7C
60
AE
EA
AE
BA
FE
ENDCHAR
STARTCHAR Gcommaaccent
ENCODING 290
SWIDTH 557 0
DWIDTH 7 0
BBX 7 12 0 -3
BITMAP
60
5C
7C
60
AE
EA
AE
BA
EE
50
30
20
ENDCHAR
STARTCHAR gcommaaccent
ENCODING 291
SWIDTH 557 0
DWIDTH 7 0
BBX 7 12 0 -3
BITMAP
60
5C
7C
60
AE
EA
AE
BA
EE
50
30
20
ENDCHAR
STARTCHAR Hcircumflex
ENCODING 292
SWIDTH 611 0
DWIDTH 7 0
BBX 7 12 0 0
BITMAP
38
38
2C
44
AA
AA
EE
AA
F6
A6
BA
EE
ENDCHAR
STARTCHAR hcircumflex
ENCODING 293
SWIDTH 611 0
DWIDTH 7 0
BBX 7 12 0 0
BITMAP
38
38
2C
44
AA
AA
EE
AA
F6
A6
BA
EE
ENDCHAR
STARTCHAR Hbar
ENCODING 294
SWIDTH 706 0
DWIDTH 8 0
BBX 8 9 0 0
BITMAP
22
55
DB
ED
57
7D
53
5D
77
ENDCHAR
STARTCHAR hbar
ENCODING 295
SWIDTH 706 0
DWIDTH 8 0
BBX 8 9 0 0
BITMAP
22
55
DB
ED
57
7D
53
5D
77
ENDCHAR
STARTCHAR Itilde
ENCODING 296
SWIDTH 266 0
DWIDTH 3 0
BBX 5 12 -1 0
BITMAP
78
B8
70
20
50
50
70
50
70
50
50
70
ENDCHAR
STARTCHAR itilde
ENCODING 297
SWIDTH 266 0
DWIDTH 3 0
BBX 5 12 -1 0
BITMAP
78
B8
70
20
50
50
70
50
70
50
50
70
ENDCHAR
STARTCHAR Imacron
ENCODING 298
SWIDTH 266 0
DWIDTH 3 0
BBX 3 11 0 0
BITMAP
E0
A0
40
A0
A0
E0
A0
E0
A0
A0
E0
ENDCHAR
STARTCHAR imacron
ENCODING 299
SWIDTH 266 0
DWIDTH 3 0
BBX 3 11 0 0
BITMAP
E0
A0
40
A0
A0
E0
A0
E0
A0
A0
E0
ENDCHAR
STARTCHAR Ibreve
ENCODING 300
SWIDTH 266 0
DWIDTH 3 0
BBX 4 12 0 0
BITMAP
B0
A0
E0
40
A0
A0
E0
A0
E0
A0
A0
E0
ENDCHAR
STARTCHAR ibreve
ENCODING 301
SWIDTH 266 0
DWIDTH 3 0
BBX 4 12 0 0
BITMAP
B0
A0
E0
40
A0
A0
E0
A0
E0
A0
A0
E0
ENDCHAR
STARTCHAR Iogonek
ENCODING 302
SWIDTH 266 0
DWIDTH 3 0
BBX 3 11 0 -3
BITMAP
E0
A0
E0
A0
E0
A0
A0
A0
C0
A0
60
ENDCHAR
STARTCHAR iogonek
ENCODING 303
SWIDTH 266 0
DWIDTH 3 0
BBX 3 11 0 -3
BITMAP
E0
A0
E0
A0
E0
A0
A0
A0
C0
A0
60
ENDCHAR
STARTCHAR Idotaccent
ENCODING 304
SWIDTH 266 0
DWIDTH 3 0
BBX 3 11 0 0
BITMAP
E0
40
40
A0
A0
E0
A0
E0
A0
A0
E0
ENDCHAR
STARTCHAR dotlessi
ENCODING 305
SWIDTH 266 0
DWIDTH 3 0
BBX 3 8 0 0
BITMAP
E0
A0
E0
A0
E0
A0
A0
E0
ENDCHAR
STARTCHAR IJ
ENCODING 306
SWIDTH 750 0
DWIDTH 9 0
BBX 9 8 0 0
BITMAP
E380
A280
E380
A280
FB80
B680
AA80
E780
ENDCHAR
STARTCHAR ij
ENCODING 307
SWIDTH 749 0
DWIDTH 9 0
BBX 9 8 0 0
BITMAP
E380
A280
E380
A280
FB80
B680
AA80
E780
ENDCHAR
STARTCHAR Jcircumflex
ENCODING 308
SWIDTH 484 0
DWIDTH 6 0
BBX 6 12 0 0
BITMAP
18
2C
3C
08
14
14
18
14
DC
B4
54
3C
ENDCHAR
STARTCHAR jcircumflex
ENCODING 309
SWIDTH 482 0
DWIDTH 6 0
BBX 6 12 0 0
BITMAP
18
2C
3C
08
14
14
18
14
DC
B4
54
3C
ENDCHAR
STARTCHAR Kcommaaccent
ENCODING 310
SWIDTH 541 0
DWIDTH 7 0
BBX 7 11 0 -3
BITMAP
EE
B2
EC
A8
F8
B4
B4
EC
10
30
60
ENDCHAR
STARTCHAR kcommaaccent
ENCODING 311
SWIDTH 541 0
DWIDTH 7 0
BBX 7 11 0 -3
BITMAP
EE
B2
EC
A8
F8
B4
B4
EC
10
30
60
ENDCHAR
STARTCHAR kgreenlandic
ENCODING 312
SWIDTH 541 0
DWIDTH 7 0
BBX 7 8 0 0
BITMAP
EE
B2
EC
A8
F8
B4
B4
EC
ENDCHAR
STARTCHAR Lacute
ENCODING 313
SWIDTH 467 0
DWIDTH 6 0
BBX 6 12 0 0
BITMAP
10
30
60
40
A0
A0
E0
A0
E0
A0
BC
F4
ENDCHAR
STARTCHAR lacute
ENCODING 314
SWIDTH 467 0
DWIDTH 6 0
BBX 6 12 0 0
BITMAP
10
30
60
40
A0
A0
E0
A0
E0
A0
BC
F4
ENDCHAR
STARTCHAR Lcommaaccent
ENCODING 315
SWIDTH 467 0
DWIDTH 6 0
BBX 6 11 0 -3
BITMAP
E0
A0
E0
A0
E0
A0
BC
F4
20
50
60
ENDCHAR
STARTCHAR lcommaaccent
ENCODING 316
SWIDTH 467 0
DWIDTH 6 0
BBX 6 11 0 -3
BITMAP
E0
A0
E0
A0
E0
A0
BC
F4
20
50
60
ENDCHAR
STARTCHAR Lcaron
ENCODING 317
SWIDTH 467 0
DWIDTH 6 0
BBX 6 9 0 0
BITMAP
5C
B8
A0
E0
A0
E0
A0
BC
F4
ENDCHAR
STARTCHAR lcaron
ENCODING 318
SWIDTH 467 0
DWIDTH 6 0
BBX 6 9 0 0
BITMAP
5C
B8
A0
E0
A0
E0
A0
BC
F4
ENDCHAR
STARTCHAR Ldot
ENCODING 319
SWIDTH 611 0
DWIDTH 7 0
BBX 7 8 0 0
BITMAP
E0
A0
E0
A6
E2
A0
BC
F4
ENDCHAR
STARTCHAR ldotaccent
ENCODING 320
SWIDTH 611 0
DWIDTH 7 0
BBX 7 8 0 0
BITMAP
E0
A0
E0
A6
E2
A0
BC
F4
ENDCHAR
STARTCHAR Lslash
ENCODING 321
SWIDTH 505 0
DWIDTH 6 0
BBX 6 8 0 0
BITMAP
70
60
70
A8
B0
60
7C
7C
ENDCHAR
STARTCHAR lslash
ENCODING 322
SWIDTH 505 0
DWIDTH 6 0
BBX 6 8 0 0
BITMAP
70
60
70
A8
B0
60
7C
7C
ENDCHAR
STARTCHAR Nacute
ENCODING 323
SWIDTH 598 0
DWIDTH 7 0
BBX 7 12 0 0
BITMAP
08
14
18
44
AA
BA
EE
AA
EA
B6
B2
EE
ENDCHAR
STARTCHAR nacute
ENCODING 324
SWIDTH 598 0
DWIDTH 7 0
BBX 7 12 0 0
BITMAP
08
14
18
44
AA
BA
EE
AA
EA
B6
B2
EE
ENDCHAR
STARTCHAR Ncommaaccent
ENCODING 325
SWIDTH 598 0
DWIDTH 7 0
BBX 7 11 0 -3
BITMAP
EE
BA
EE
AA
EA
B6
B2
EE
10
28
30
ENDCHAR
STARTCHAR ncommaaccent
ENCODING 326
SWIDTH 598 0
DWIDTH 7 0
BBX 7 11 0 -3
BITMAP
EE
BA
EE
AA
EA
B6
B2
EE
10
28
30
ENDCHAR
STARTCHAR Ncaron
ENCODING 327
SWIDTH 598 0
DWIDTH 7 0
BBX 7 12 0 0
BITMAP
2C
38
10
44
AA
BA
EE
AA
EA
B6
B2
EE
ENDCHAR
STARTCHAR ncaron
ENCODING 328
SWIDTH 598 0
DWIDTH 7 0
BBX 7 12 0 0
BITMAP
2C
38
10
44
AA
BA
EE
AA
EA
B6
B2
EE
ENDCHAR
STARTCHAR napostrophe
ENCODING 329
SWIDTH 807 0
DWIDTH 10 0
BBX 9 8 0 0
BITMAP
FD80
DD80
1F80
1A80
1780
1D80
1A80
1F80
ENDCHAR
STARTCHAR Eng
ENCODING 330
SWIDTH 595 0
DWIDTH 7 0
BBX 7 11 0 -3
BITMAP
EE
BA
FE
AA
EA
B6
B2
EE
1A
74
78
ENDCHAR
STARTCHAR eng
ENCODING 331
SWIDTH 595 0
DWIDTH 7 0
BBX 7 11 0 -3
BITMAP
EE
BA
FE
AA
EA
B6
B2
EE
1A
74
78
ENDCHAR
STARTCHAR Omacron
ENCODING 332
SWIDTH 612 0
DWIDTH 7 0
BBX 7 11 0 0
BITMAP
28
3C
60
5E
7C
66
AA
EA
AE
B2
FE
ENDCHAR
STARTCHAR omacron
ENCODING 333
SWIDTH 612 0
DWIDTH 7 0
BBX 7 11 0 0
BITMAP
28
3C
60
5E
7C
66
AA
EA
AE
B2
FE
ENDCHAR
STARTCHAR Obreve
ENCODING 334
SWIDTH 612 0
DWIDTH 7 0
BBX 7 12 0 0
BITMAP
2C
28
38
60
5E
7C
66
AA
EA
AE
B2
FE
ENDCHAR
STARTCHAR obreve
ENCODING 335
SWIDTH 612 0
DWIDTH 7 0
BBX 7 12 0 0
BITMAP
2C
28
38
60
5E
7C
66
AA
EA
AE
B2
FE
ENDCHAR
STARTCHAR Ohungarumlaut
ENCODING 336
SWIDTH 612 0
DWIDTH 7 0
BBX 7 12 0 0
BITMAP
14
1A
3C
60
5E
7C
66
AA
EA
AE
B2
FE
ENDCHAR
STARTCHAR ohungarumlaut
ENCODING 337
SWIDTH 612 0
DWIDTH 7 0
BBX 7 12 0 0
BITMAP
14
1A
3C
60
5E
7C
66
AA
EA
AE
B2
FE
ENDCHAR
STARTCHAR OE
ENCODING 338
SWIDTH 831 0
DWIDTH 10 0
BBX 10 9 0 0
BITMAP
6000
5FC0
7BC0
6E00
AB80
EB80
AE00
B3C0
FFC0
ENDCHAR
STARTCHAR oe
ENCODING 339
SWIDTH 831 0
DWIDTH 10 0
BBX 10 9 0 0
BITMAP
6000
5FC0
7BC0
6E00
AB80
EB80
AE00
B3C0
FFC0
ENDCHAR
STARTCHAR Racute
ENCODING 340
SWIDTH 532 0
DWIDTH 6 0
BBX 6 12 0 0
BITMAP
08
18
10
60
98
F4
6C
BC
A8
FC
AC
EC
ENDCHAR
STARTCHAR racute
ENCODING 341
SWIDTH 532 0
DWIDTH 6 0
BBX 6 12 0 0
BITMAP
08
18
10
60
98
F4
6C
BC
A8
FC
AC
EC
ENDCHAR
STARTCHAR Rcommaaccent
ENCODING 342
SWIDTH 532 0
DWIDTH 6 0
BBX 6 12 0 -3
BITMAP
60
98
F4
6C
BC
A8
FC
AC
AC
50
30
60
ENDCHAR
STARTCHAR rcommaaccent
ENCODING 343
SWIDTH 532 0
DWIDTH 6 0
BBX 6 12 0 -3
BITMAP
60
98
F4
6C
BC
A8
FC
AC
AC
50
30
60
ENDCHAR
STARTCHAR Rcaron
ENCODING 344
SWIDTH 532 0
DWIDTH 6 0
BBX 6 12 0 0
BITMAP
7C
38
30
60
98
F4
6C
BC
A8
FC
AC
EC
ENDCHAR
STARTCHAR rcaron
ENCODING 345
SWIDTH 532 0
DWIDTH 6 0
BBX 6 12 0 0
BITMAP
7C
38
30
60
98
F4
6C
BC
A8
FC
AC
EC
ENDCHAR
STARTCHAR Sacute
ENCODING 346
SWIDTH 442 0
DWIDTH 5 0
BBX 5 12 0 0
BITMAP
10
30
20
18
E8
B0
60
50
38
28
E8
F8
ENDCHAR
STARTCHAR sacute
ENCODING 347
SWIDTH 442 0
DWIDTH 5 0
BBX 5 12 0 0
BITMAP
10
30
20
18
E8
B0
60
50
38
28
E8
F8
ENDCHAR
STARTCHAR Scircumflex
ENCODING 348
SWIDTH 442 0
DWIDTH 5 0
BBX 5 12 0 0
BITMAP
20
70
58
18
E8
B0
60
50
38
28
E8
F8
ENDCHAR
STARTCHAR scircumflex
ENCODING 349
SWIDTH 442 0
DWIDTH 5 0
BBX 5 12 0 0
BITMAP
20
70
58
18
E8
B0
60
50
38
28
E8
F8
ENDCHAR
STARTCHAR Scedilla
ENCODING 350
SWIDTH 442 0
DWIDTH 5 0
BBX 5 12 0 -3
BITMAP
18
E8
B0
60
50
38
28
E8
D8
30
70
40
ENDCHAR
STARTCHAR scedilla
ENCODING 351
SWIDTH 442 0
DWIDTH 5 0
BBX 5 12 0 -3
BITMAP
18
E8
B0
60
50
38
28
E8
D8
30
70
40
ENDCHAR
STARTCHAR Scaron
ENCODING 352
SWIDTH 442 0
DWIDTH 5 0
BBX 5 12 0 0
BITMAP
F8
70
60
18
E8
B0
60
50
38
28
E8
F8
ENDCHAR
STARTCHAR scaron
ENCODING 353
SWIDTH 442 0
DWIDTH 5 0
BBX 5 12 0 0
BITMAP
F8
70
60
18
E8
B0
60
50
38
28
E8
F8
ENDCHAR
STARTCHAR Tcommaaccent
ENCODING 354
SWIDTH 453 0
DWIDTH 5 0
BBX 6 12 0 -3
BITMAP
D8
A4
F8
70
50
50
70
50
50
20
60
40
ENDCHAR
STARTCHAR tcommaaccent
ENCODING 355
SWIDTH 453 0
DWIDTH 5 0
BBX 6 12 0 -3
BITMAP
D8
A4
F8
70
50
50
70
50
50
20
60
40
ENDCHAR
STARTCHAR Tcaron
ENCODING 356
SWIDTH 453 0
DWIDTH 5 0
BBX 6 12 0 0
BITMAP
78
70
30
D8
A4
F8
70
50
50
70
50
70
ENDCHAR
STARTCHAR tcaron
ENCODING 357
SWIDTH 453 0
DWIDTH 5 0
BBX 6 12 0 0
BITMAP
78
70
30
D8
A4
F8
70
50
50
70
50
70
ENDCHAR
STARTCHAR Tbar
ENCODING 358
SWIDTH 455 0
DWIDTH 5 0
BBX 6 8 0 0
BITMAP
FC
F8
50
70
88
70
50
70
ENDCHAR
STARTCHAR tbar
ENCODING 359
SWIDTH 455 0
DWIDTH 5 0
BBX 6 8 0 0
BITMAP
FC
F8
50
70
88
70
50
70
ENDCHAR
STARTCHAR Utilde
ENCODING 360
SWIDTH 583 0
DWIDTH 7 0
BBX 7 12 0 0
BITMAP
36
3C
78
04
6A
6A
AC
AA
EA
AC
B2
7E
ENDCHAR
STARTCHAR utilde
ENCODING 361
SWIDTH 583 0
DWIDTH 7 0
BBX 7 12 0 0
BITMAP
36
3C
78
04
6A
6A
AC
AA
EA
AC
B2
7E
ENDCHAR
STARTCHAR Umacron
ENCODING 362
SWIDTH 583 0
DWIDTH 7 0
BBX 7 11 0 0
BITMAP
28
3C
04
6A
6A
AC
AA
EA
AC
B2
7E
ENDCHAR
STARTCHAR umacron
ENCODING 363
SWIDTH 583 0
DWIDTH 7 0
BBX 7 11 0 0
BITMAP
28
3C
04
6A
6A
AC
AA
EA
AC
B2
7E
ENDCHAR
STARTCHAR Ubreve
ENCODING 364
SWIDTH 583 0
DWIDTH 7 0
BBX 7 12 0 0
BITMAP
68
74
38
04
6A
6A
AC
AA
EA
AC
B2
7E
ENDCHAR
STARTCHAR ubreve
ENCODING 365
SWIDTH 583 0
DWIDTH 7 0
BBX 7 12 0 0
BITMAP
68
74
38
04
6A
6A
AC
AA
EA
AC
B2
7E
ENDCHAR
STARTCHAR Uring
ENCODING 366
SWIDTH 583 0
DWIDTH 7 0
BBX 7 12 0 0
BITMAP
38
54
38
04
6A
6A
AC
AA
EA
AC
B2
7E
ENDCHAR
STARTCHAR uring
ENCODING 367
SWIDTH 583 0
DWIDTH 7 0
BBX 7 12 0 0
BITMAP
38
54
38
04
6A
6A
AC
AA
EA
AC
B2
7E
ENDCHAR
STARTCHAR Uhungarumlaut
ENCODING 368
SWIDTH 583 0
DWIDTH 7 0
BBX 7 12 0 0
BITMAP
14
2C
38
04
6A
6A
AC
AA
EA
AC
B2
7E
ENDCHAR
STARTCHAR uhungarumlaut
ENCODING 369
SWIDTH 583 0
DWIDTH 7 0
BBX 7 12 0 0
BITMAP
14
2C
38
04
6A
6A
AC
AA
EA
AC
B2
7E
ENDCHAR
STARTCHAR Uogonek
ENCODING 370
SWIDTH 583 0
DWIDTH 7 0
BBX 7 11 0 -3
BITMAP
6E
6A
AC
AA
EA
AC
B2
7E
0C
0A
06
ENDCHAR
STARTCHAR uogonek
ENCODING 371
SWIDTH 583 0
DWIDTH 7 0
BBX 7 11 0 -3
BITMAP
6E
6A
AC
AA
EA
AC
B2
7E
0C
0A
06
ENDCHAR
STARTCHAR Wcircumflex
ENCODING 372
SWIDTH 735 0
DWIDTH 9 0
BBX 9 11 0 0
BITMAP
1800
1C00
3D00
CA80
B680
F280
AD00
7D00
6F00
2D00
3F00
ENDCHAR
STARTCHAR wcircumflex
ENCODING 373
SWIDTH 735 0
DWIDTH 9 0
BBX 9 11 0 0
BITMAP
1800
1C00
3D00
CA80
B680
F280
AD00
7D00
6F00
2D00
3F00
ENDCHAR
STARTCHAR Ycircumflex
ENCODING 374
SWIDTH 484 0
DWIDTH 6 0
BBX 6 12 0 0
BITMAP
30
68
58
00
CC
B4
D4
68
28
30
50
70
ENDCHAR
STARTCHAR ycircumflex
ENCODING 375
SWIDTH 484 0
DWIDTH 6 0
BBX 6 12 0 0
BITMAP
30
68
58
00
CC
B4
D4
68
28
30
50
70
ENDCHAR
STARTCHAR Ydieresis
ENCODING 376
SWIDTH 484 0
DWIDTH 6 0
BBX 6 11 0 0
BITMAP
78
78
00
CC
B4
D4
68
28
30
50
70
ENDCHAR
STARTCHAR Zacute
ENCODING 377
SWIDTH 458 0
DWIDTH 6 0
BBX 6 12 0 0
BITMAP
10
28
30
50
A8
7C
28
30
50
A0
B8
F8
ENDCHAR
STARTCHAR zacute
ENCODING 378
SWIDTH 458 0
DWIDTH 6 0
BBX 6 12 0 0
BITMAP
10
28
30
50
A8
7C
28
30
50
A0
B8
F8
ENDCHAR
STARTCHAR Zdotaccent
ENCODING 379
SWIDTH 458 0
DWIDTH 6 0
BBX 6 11 0 0
BITMAP
30
30
50
A8
7C
28
30
50
A0
B8
F8
ENDCHAR
STARTCHAR zdotaccent
ENCODING 380
SWIDTH 458 0
DWIDTH 6 0
BBX 6 11 0 0
BITMAP
30
30
50
A8
7C
28
30
50
A0
B8
F8
ENDCHAR
STARTCHAR Zcaron
ENCODING 381
SWIDTH 458 0
DWIDTH 6 0
BBX 6 12 0 0
BITMAP
78
70
30
50
A8
7C
28
30
50
A0
B8
F8
ENDCHAR
STARTCHAR zcaron
ENCODING 382
SWIDTH 458 0
DWIDTH 6 0
BBX 6 12 0 0
BITMAP
78
70
30
50
A8
7C
28
30
50
A0
B8
F8
ENDCHAR
STARTCHAR AEacute
ENCODING 508
SWIDTH 797 0
DWIDTH 10 0
BBX 10 12 0 0
BITMAP
0400
0600
0C00
0580
1A40
2B80
2C00
5B80
5E80
AB00
BAC0
CFC0
ENDCHAR
STARTCHAR aeacute
ENCODING 509
SWIDTH 797 0
DWIDTH 10 0
BBX 10 12 0 0
BITMAP
0400
0600
0C00
0580
1A40
2B80
2C00
5B80
5E80
AB00
BAC0
CFC0
ENDCHAR
STARTCHAR Oslashacute
ENCODING 510
SWIDTH 612 0
DWIDTH 7 0
BBX 7 12 0 0
BITMAP
08
14
18
64
5A
6A
5E
AA
EA
BE
D2
FE
ENDCHAR
STARTCHAR oslashacute
ENCODING 511
SWIDTH 612 0
DWIDTH 7 0
BBX 7 12 0 0
BITMAP
08
14
18
64
5A
6A
5E
AA
EA
BE
D2
FE
ENDCHAR
STARTCHAR dotlessj
ENCODING 567
SWIDTH 482 0
DWIDTH 6 0
BBX 6 8 0 0
BITMAP
1C
14
18
14
DC
B4
54
3C
ENDCHAR
STARTCHAR circumflex
ENCODING 710
SWIDTH 308 0
DWIDTH 4 0
BBX 4 3 0 9
BITMAP
60
D0
B0
ENDCHAR
STARTCHAR caron
ENCODING 711
SWIDTH 310 0
DWIDTH 4 0
BBX 4 3 0 9
BITMAP
F0
E0
60
ENDCHAR
STARTCHAR breve
ENCODING 728
SWIDTH 333 0
DWIDTH 4 0
BBX 4 3 0 9
BITMAP
D0
F0
F0
ENDCHAR
STARTCHAR dotaccent
ENCODING 729
SWIDTH 166 0
DWIDTH 2 0
BBX 2 2 0 9
BITMAP
C0
C0
ENDCHAR
STARTCHAR ring
ENCODING 730
SWIDTH 309 0
DWIDTH 4 0
BBX 4 3 0 9
BITMAP
E0
F0
F0
ENDCHAR
STARTCHAR ogonek
ENCODING 731
SWIDTH 226 0
DWIDTH 3 0
BBX 3 4 0 -3
BITMAP
C0
C0
A0
40
ENDCHAR
STARTCHAR tilde
ENCODING 732
SWIDTH 410 0
DWIDTH 5 0
BBX 5 3 0 9
BITMAP
78
D0
B0
ENDCHAR
STARTCHAR hungarumlaut
ENCODING 733
SWIDTH 361 0
DWIDTH 4 0
BBX 4 3 0 9
BITMAP
50
B0
E0
ENDCHAR
STARTCHAR uni0312
ENCODING 786
SWIDTH 202 0
DWIDTH 2 0
BBX 2 2 0 6
BITMAP
C0
C0
ENDCHAR
STARTCHAR uni0315
ENCODING 789
SWIDTH 202 0
DWIDTH 2 0
BBX 2 2 0 6
BITMAP
C0
C0
ENDCHAR
STARTCHAR uni0326
ENCODING 806
SWIDTH 201 0
DWIDTH 2 0
BBX 2 3 0 -3
BITMAP
40
C0
80
ENDCHAR
STARTCHAR Wgrave
ENCODING 7808
SWIDTH 735 0
DWIDTH 9 0
BBX 9 11 0 0
BITMAP
1000
1800
1900
CA80
B680
F280
AD00
7D00
6F00
2D00
3F00
ENDCHAR
STARTCHAR wgrave
ENCODING 7809
SWIDTH 735 0
DWIDTH 9 0
BBX 9 11 0 0
BITMAP
1000
1800
1900
CA80
B680
F280
AD00
7D00
6F00
2D00
3F00
ENDCHAR
STARTCHAR Wacute
ENCODING 7810
SWIDTH 735 0
DWIDTH 9 0
BBX 9 11 0 0
BITMAP
0400
0A00
0D00
CA80
B680
F280
AD00
7D00
6F00
2D00
3F00
ENDCHAR
STARTCHAR wacute
ENCODING 7811
SWIDTH 735 0
DWIDTH 9 0
BBX 9 11 0 0
BITMAP
0400
0A00
0D00
CA80
B680
F280
AD00
7D00
6F00
2D00
3F00
ENDCHAR
STARTCHAR Wdieresis
ENCODING 7812
SWIDTH 735 0
DWIDTH 9 0
BBX 9 10 0 0
BITMAP
3E00
3F00
CA80
B680
F280
AD00
7D00
6F00
2D00
3F00
ENDCHAR
STARTCHAR wdieresis
ENCODING 7813
SWIDTH 735 0
DWIDTH 9 0
BBX 9 10 0 0
BITMAP
3E00
3F00
CA80
B680
F280
AD00
7D00
6F00
2D00
3F00
ENDCHAR
STARTCHAR Ygrave
ENCODING 7922
SWIDTH 484 0
DWIDTH 6 0
BBX 6 11 0 0
BITMAP
20
50
30
CC
B4
D4
68
28
30
50
70
ENDCHAR
STARTCHAR ygrave
ENCODING 7923
SWIDTH 484 0
DWIDTH 6 0
BBX 6 11 0 0
BITMAP
20
50
30
CC
B4
D4
68
28
30
50
70
ENDCHAR
STARTCHAR endash
ENCODING 8211
SWIDTH 591 0
DWIDTH 7 0
BBX 7 2 0 3
BITMAP
FE
FE
ENDCHAR
STARTCHAR emdash
ENCODING 8212
SWIDTH 726 0
DWIDTH 9 0
BBX 8 2 0 3
BITMAP
FF
FF
ENDCHAR
STARTCHAR quoteleft
ENCODING 8216
SWIDTH 291 0
DWIDTH 4 0
BBX 4 5 0 4
BITMAP
60
50
A0
A0
E0
ENDCHAR
STARTCHAR quoteright
ENCODING 8217
SWIDTH 291 0
DWIDTH 4 0
BBX 4 5 0 4
BITMAP
60
50
A0
A0
E0
ENDCHAR
STARTCHAR quotesinglbase
ENCODING 8218
SWIDTH 228 0
DWIDTH 3 0
BBX 3 4 0 -2
BITMAP
40
A0
C0
80
ENDCHAR
STARTCHAR quotedblleft
ENCODING 8220
SWIDTH 532 0
DWIDTH 6 0
BBX 6 5 0 4
BITMAP
6C
54
BC
B4
F8
ENDCHAR
STARTCHAR quotedblright
ENCODING 8221
SWIDTH 532 0
DWIDTH 6 0
BBX 6 5 0 4
BITMAP
6C
54
BC
B4
F8
ENDCHAR
STARTCHAR quotedblbase
ENCODING 8222
SWIDTH 448 0
DWIDTH 5 0
BBX 5 4 0 -2
BITMAP
48
B8
E8
90
ENDCHAR
STARTCHAR dagger
ENCODING 8224
SWIDTH 453 0
DWIDTH 5 0
BBX 5 10 0 -1
BITMAP
70
50
D8
F8
50
70
50
50
50
20
ENDCHAR
STARTCHAR daggerdbl
ENCODING 8225
SWIDTH 462 0
DWIDTH 6 0
BBX 5 10 0 -1
BITMAP
70
30
D8
F8
50
70
D8
D8
50
20
ENDCHAR
STARTCHAR bullet
ENCODING 8226
SWIDTH 275 0
DWIDTH 3 0
BBX 2 2 1 3
BITMAP
C0
C0
ENDCHAR
STARTCHAR ellipsis
ENCODING 8230
SWIDTH 605 0
DWIDTH 7 0
BBX 7 2 0 0
BITMAP
D6
FE
ENDCHAR
STARTCHAR perthousand
ENCODING 8240
SWIDTH 1249 0
DWIDTH 15 0
BBX 15 8 0 0
BITMAP
F600
F600
F600
ABDC
5F6E
0FAA
0EBA
09DC
ENDCHAR
STARTCHAR guilsinglleft
ENCODING 8249
SWIDTH 359 0
DWIDTH 4 0
BBX 4 5 0 2
BITMAP
30
50
A0
E0
70
ENDCHAR
STARTCHAR guilsinglright
ENCODING 8250
SWIDTH 359 0
DWIDTH 4 0
BBX 4 5 0 2
BITMAP
C0
B0
50
70
E0
ENDCHAR
STARTCHAR fraction
ENCODING 8260
SWIDTH 266 0
DWIDTH 3 0
BBX 3 8 0 0
BITMAP
60
60
60
40
A0
C0
C0
C0
ENDCHAR
STARTCHAR Euro
ENCODING 8364
SWIDTH 690 0
DWIDTH 8 0
BBX 8 9 0 0
BITMAP
18
27
1F
78
68
B8
EB
35
3F
ENDCHAR
STARTCHAR partialdiff
ENCODING 8706
SWIDTH 519 0
DWIDTH 6 0
BBX 6 8 0 0
BITMAP
38
28
18
74
DC
F4
8C
7C
ENDCHAR
STARTCHAR minus
ENCODING 8722
SWIDTH 467 0
DWIDTH 6 0
BBX 5 2 0 3
BITMAP
F8
F8
ENDCHAR
STARTCHAR fi
ENCODING 64257
SWIDTH 741 0
DWIDTH 9 0
BBX 9 8 0 0
BITMAP
FF80
BE80
E300
BA80
FB80
A280
A280
E380
ENDCHAR
STARTCHAR fl
ENCODING 64258
SWIDTH 942 0
DWIDTH 11 0
BBX 12 8 0 0
BITMAP
FF80
BE80
E300
BA80
FB80
A280
A2F0
E3F0
ENDCHAR
STARTCHAR .notdef
ENCODING -1
SWIDTH 200 0
DWIDTH 2 0
BBX 1 1 0 0
BITMAP
00
ENDCHAR
STARTCHAR .null
ENCODING -1
SWIDTH 0 0
DWIDTH 0 0
BBX 1 1 0 0
BITMAP
00
ENDCHAR
STARTCHAR nonmarkingreturn
ENCODING -1
SWIDTH 200 0
DWIDTH 2 0
BBX 1 1 0 0
BITMAP
00
ENDCHAR
ENDFONT
